{
.formatVersion = 3;
familyName = Ravid;
customParameters = (
{
name = glyphOrder;
value = (
.notdef,
.null,
LF,
controlCR,
space,
exclam,
numbersign,
dollar,
percent,
parenleft,
parenright,
asterisk,
comma,
hyphen,
period,
zero,
one,
two,
three,
four,
five,
six,
seven,
eight,
nine,
question,
nonbreakingspace,
softhyphen,
alef,
bet,
uni05d2,
uni05d3,
hehebrew,
vav,
zayin,
uni05d7,
tet,
yod,
uni05da,
kaf,
uni05dc,
uni05dd,
mem,
uni05df,
nun,
samekh,
ayin,
uni05e3,
pe,
uni05e5,
tsadi,
qof,
resh,
shin,
tav,
gershayimhebrew,
sheqel
);
}
);
featurePrefixes = (
{
code = "###
# OpenType Layout feature definitions
# Format: Adobe FDK for OpenType (AFDKO) version 2.5
# Generated on: 2023-10-25 19:2
# Generated by: FontLab 8.0.0
# Font PostScript name: Ravid1Regular
#
# Totals:
# Languagesystems: 1
# GSUB lookups: 0
# GPOS lookups: 1
# GPOS features: 1 (kern)

#
# Languagesystem definitions
#

languagesystem DFLT dflt; # Default default


#
# Lookup definitions
#


#
# Feature definitions
#

";
tag = Languagesystems;
}
);
features = (
{
code = "# GPOS feature: Kerning
# Lookups: 1


  lookup kern {
  # GPOS lookup 1, type 2 (Pair adjustment)

    pos zero one -20;
    pos zero two -41;
    pos zero three -40;
    pos zero four -10;
    pos zero five -38;
    pos zero six -9;
    pos zero seven -45;
    pos zero eight -24;
    pos zero nine -20;
    pos one zero -22;
    pos one two -41;
    pos one three -30;
    pos one four -37;
    pos one five -40;
    pos one six -37;
    pos one seven -31;
    pos one eight -15;
    pos one nine -17;
    pos two zero -38;
    pos two one -45;
    pos two four -43;
    pos two six -41;
    pos two seven -48;
    pos two eight -38;
    pos two nine -44;
    pos three zero -11;
    pos three two -17;
    pos three four -13;
    pos three five -13;
    pos three seven -49;
    pos three eight -15;
    pos three nine -45;
    pos four one -35;
    pos four two -44;
    pos four three -43;
    pos four five -40;
    pos four six -20;

glyphs = (
{
glyphname = .notdef;
layers = (
{
layerId = "C73915B0-B20C-482B-87B9-BB72CFBD0103";
shapes = (
{
closed = 1;
nodes = (
(50,700,l),
(50,0,l),
(477,0,l),
(477,700,l)
);
},
{
closed = 1;
nodes = (
(78,680,l),
(449,680,l),
(263,371,l)
);
},
{
closed = 1;
nodes = (
(251,350,l),
(71,49,l),
(71,650,l)
);
},
{
closed = 1;
nodes = (
(264,329,l),
(449,21,l),
(79,21,l)
);
},
{
closed = 1;
nodes = (
(276,350,l),
(457,652,l),
(457,47,l)
);
}
);
width = 527;
}
);
},
{
glyphname = exclam;
layers = (
{
layerId = "C73915B0-B20C-482B-87B9-BB72CFBD0103";
shapes = (
{
closed = 1;
nodes = (
(77.436,6.591,o),
(80.163,11.01,o),
(80.984,16.058,cs),
(81.805,21.107,o),
(80.611,26.164,o),
(77.618,30.309,cs),
(71.45,38.848,o),
(59.487,40.772,o),
(50.94,34.629,c),
(50.923,34.629,l),
(42.384,28.461,o),
(40.436,16.481,o),
(46.604,7.926,cs),
(50.343,2.752,o),
(56.196,0.,o),
(62.14,0.,cs),
(66.012,0.,o),
(69.925,1.177,o),
(73.299,3.606,cs)
);
},
{
closed = 1;
nodes = (
(65.464,14.442,l),
(62.903,12.593,o),
(59.305,13.173,o),
(57.456,15.743,cs),
(55.599,18.322,o),
(56.179,21.92,o),
(58.749,23.777,c)
);
},
{
closed = 1;
nodes = (
(58.758,23.777,l),
(61.311,25.625,o),
(64.917,25.045,o),
(66.783,22.475,cs),
(68.631,19.897,o),
(68.051,16.307,o),
(65.481,14.45,c)
);
},
{
closed = 1;
nodes = (
(64.395,159.273,o),
(69.634,163.476,o),
(70.721,169.479,cs),
(87.376,261.095,o),
(71.583,526.003,o),
(70.895,537.228,cs),
(70.488,544.076,o),
(64.594,549.323,o),
(57.73,548.884,cs),
(50.874,548.47,o),
(45.651,542.575,o),
(46.073,535.719,cs),
(46.231,532.992,o),
(62.364,262.595,o),
(46.248,173.922,cs),
(45.021,167.166,o),
(49.497,160.691,o),
(56.254,159.464,c),
(57.008,159.331,o),
(57.763,159.265,o),
(58.501,159.273,c)
);
}
);
width = 125;
}
);
unicode = 33;
},
{
glyphname = numbersign;
layers = (
{
layerId = "C73915B0-B20C-482B-87B9-BB72CFBD0103";
shapes = (
{
closed = 1;
nodes = (
(112.757,0,l),
(118.56,0,o),
(123.75,4.087,o),
(124.935,9.998,cs),
(127.605,23.37,o),
(128.649,59.665,o),
(128.815,103.421,c),
(202.673,108.52,l),
(201.123,73.941,o),
(199.838,46.865,o),
(199.805,46.185,c),
(199.482,39.329,o),
(204.771,33.501,o),
(211.635,33.178,cs),
(218.541,33.045,o),
(224.319,38.16,o),
(224.651,45.008,cs),
(224.784,47.818,o),
(226.102,75.591,o),
(227.652,110.236,c),
(312.57,116.097,ls),
(319.426,116.57,o),
(324.599,122.506,o),
(324.126,129.362,cs),
(323.645,136.218,o),
(317.685,141.557,o),
(310.862,140.91,cs),
(228.763,135.248,l),
(229.691,156.604,o),
(230.628,178.88,o),
(231.374,198.503,c),
(256.336,197.185,o),
(279.616,192.832,o),
(297.863,183.705,cs),
(304.006,180.629,o),
(311.475,183.124,o),
(314.551,189.268,cs),
(317.618,195.419,o),
(315.131,202.88,o),
(308.988,205.956,cs),
(287.475,216.708,o),
(260.598,221.765,o),
(232.261,223.266,c),
(232.693,236.398,o),
(232.958,246.844,o),
(232.958,252.862,cs),
(232.958,287.648,o),
(224.394,313.738,o),
(224.029,314.832,cs),
(221.857,321.34,o),
(214.827,324.864,o),
(208.302,322.692,cs),
(201.786,320.528,o),
(198.263,313.481,o),
(200.435,306.965,c),
(200.51,306.741,o),
(208.087,283.661,o),
(208.087,252.871,cs),
(208.087,247.043,o),
(207.822,236.738,o),
(207.391,223.722,c),
(180.099,223.365,o),
(152.484,220.373,o),
(127.895,216.567,c),
(126.859,278.529,o),
(125.333,331.189,o),
(125.184,336.138,cs),
(124.985,343.011,o),
(119.016,348.731,o),
(112.392,348.201,cs),
(105.519,348.002,o),
(100.122,342.273,o),
(100.321,335.409,cs),
(101.167,306.915,o),
(102.294,260.871,o),
(103.082,212.298,c),
(69.531,205.972,o),
(45.639,199.249,o),
(43.019,198.503,cs),
(36.42,196.621,o),
(32.598,189.74,o),
(34.48,183.133,cs),
(36.37,176.542,o),
(43.251,172.737,o),
(49.85,174.594,c),
(50.455,174.759,o),
(72.192,180.878,o),
(103.455,186.938,c),
(103.72,166.469,o),
(103.911,146.017,o),
(103.969,126.659,c),
(70.46,124.346,ls),
(63.604,123.874,o),
(58.431,117.938,o),
(58.903,111.082,cs),
(59.376,104.226,o),
(65.336,98.895,o),
(72.168,99.533,cs),
(103.969,101.73,l),
(103.82,59.864,o),
(102.883,26.454,o),
(100.57,14.889,cs),
(99.227,8.149,o),
(103.596,1.6,o),
(110.328,0.257,c),
(111.149,0.091,o),
(111.969,0.017,o),
(112.773,0.017,c)
);
},
{
closed = 1;
nodes = (
(205.732,178.631,o),
(204.763,155.526,o),
(203.801,133.532,c),
(128.848,128.367,l),
(128.79,148.902,o),
(128.583,170.349,o),
(128.293,191.348,c),
(152.492,195.237,o),
(179.817,198.387,o),
(206.512,198.893,c)
);
}
);
width = 358;
}
);
unicode = 35;
},
{
glyphname = dollar;
layers = (
{
layerId = "C73915B0-B20C-482B-87B9-BB72CFBD0103";
shapes = (
{
closed = 1;
nodes = (
(396.463,509.609,l),
(394.78,509.949,o),
(356.694,517.385,o),
(311.761,513.572,c),
(318.493,542.173,o),
(322.961,559.823,o),
(323.177,560.677,c),
(324.876,567.334,o),
(320.855,574.099,o),
(314.198,575.79,cs),
(307.525,577.539,o),
(300.768,573.477,o),
(299.077,566.812,cs),
(298.14,563.156,o),
(292.801,542.057,o),
(285.282,509.924,c),
(276.03,508.15,o),
(267.209,505.936,o),
(258.952,503.184,c),
(261.107,514.583,o),
(263.23,525.742,o),
(265.31,536.511,cs),
(266.612,543.251,o),
(262.202,549.775,o),
(255.462,551.077,cs),
(248.705,552.37,o),
(242.197,547.976,o),
(240.895,541.228,cs),
(239.378,533.377,o),
(235.971,515.619,o),
(231.411,491.163,c),
(204.866,476.406,o),
(185.815,454.926,o),
(175.178,427.27,cs),
(174.83,426.225,ls),
(167.087,399.132,o),
(181.18,367.53,o),
(203.896,337.311,c),
(191.792,266.305,o),
(179.58,189.089,o),
(171.97,126.274,c),
(95.591,127.136,o),
(66.691,136.056,o),
(66.368,136.156,c),
(59.869,138.328,o),
(52.813,134.804,o),
(50.641,128.296,cs),
(48.469,121.78,o),
(51.993,114.734,o),
(58.509,112.57,cs),
(60.109,112.031,o),
(90.012,102.481,o),
(169.135,101.419,c),
(164.144,54.811,o),
(162.478,19.13,o),
(166.548,4.879,cs),
(168.107,-0.584,o),
(173.089,-4.141,o),
(178.494,-4.141,cs),
(179.63,-4.141,o),
(180.774,-3.983,o),
(181.918,-3.66,cs),
(188.517,-1.77,o),
(192.347,5.111,o),
(190.457,11.71,cs),
(187.133,23.35,o),
(188.915,56.163,o),
(193.989,101.386,c),
(201.716,101.453,o),
(209.716,101.585,o),
(218.23,101.817,c),
(216.978,66.086,o),
(218.653,35.387,o),
(224.522,13.376,cs),
(226.006,7.814,o),
(231.03,4.149,o),
(236.527,4.149,cs),
(237.588,4.149,o),
(238.665,4.29,o),
(239.743,4.572,cs),
(246.375,6.338,o),
(250.322,13.153,o),
(248.547,19.793,cs),
(243.142,40.071,o),
(241.683,68.863,o),
(242.976,102.713,c),
(249.186,102.986,o),
(255.503,103.285,o),
(262.094,103.649,cs),
(348.048,108.425,o),
(373.797,137.681,o),
(380.255,161.383,cs),
(389.599,195.663,o),
(363.153,231.751,o),
(334.626,250.769,cs),
(313.577,264.796,o),
(289.808,283.483,o),
(268.038,303.794,c),
(280.349,372.91,o),
(294.791,439.672,o),
(305.809,487.83,c),
(350.278,493.086,o),
(390.817,485.385,o),
(391.621,485.235,c),
(398.361,483.876,o),
(404.902,488.253,o),
(406.245,495.001,cs),
(407.589,501.733,o),
(403.22,508.282,o),
(396.488,509.625,c)
);
},
{
closed = 1;
nodes = (
(204.675,434.474,o),
(213.877,446.71,o),
(224.953,456.352,c),
(220.402,431.531,o),
(215.254,402.938,o),
(209.923,372.404,c),
(199.892,389.756,o),
(195.1,405.889,o),
(198.582,418.888,c)
);
},
{
closed = 1;
nodes = (
(203.539,179.174,o),
(213.596,244.643,o),
(224.887,312.167,c),
(230.16,306.414,o),
(235.606,300.784,o),
(241.169,295.321,c),
(231.163,237.314,o),
(222.897,178.121,o),
(219.49,126.738,c),
(211.622,126.514,o),
(204.103,126.365,o),
(196.924,126.282,c)
);
},
{
closed = 1;
nodes = (
(342.294,215.751,o),
(362.017,189.106,o),
(356.238,167.924,cs),
(350.145,145.582,o),
(316.213,131.571,o),
(260.693,128.487,cs),
(255.08,128.172,o),
(249.667,127.907,o),
(244.336,127.667,c),
(247.495,172.426,o),
(254.467,223.71,o),
(263.039,274.993,c),
(284.967,255.669,o),
(306.264,239.776,o),
(320.806,230.077,cs)
);
},
{
closed = 1;
nodes = (
(240.713,331.309,o),
(235.25,337.486,o),
(230.209,343.645,c),
(237.811,388.032,o),
(245.778,432.534,o),
(253.53,474.276,c),
(261.737,477.932,o),
(270.334,480.775,o),
(279.056,482.972,c),
(269.232,439.746,o),
(257.244,383.911,o),
(246.483,325.183,c)
);
}
);
width = 441;
}
);
unicode = 36;
},
{
glyphname = percent;
layers = (
{
layerId = "C73915B0-B20C-482B-87B9-BB72CFBD0103";
shapes = (
{
closed = 1;
nodes = (
(47.211,0.008,o),
(50.005,0.929,o),
(52.31,2.819,cs),
(144.639,78.36,o),
(258.175,320.246,o),
(262.966,330.501,cs),
(265.868,336.727,o),
(263.182,344.122,o),
(256.956,347.032,cs),
(250.738,349.925,o),
(243.335,347.239,o),
(240.425,341.021,cs),
(239.273,338.559,o),
(124.51,94.02,o),
(36.558,22.06,cs),
(31.244,17.716,o),
(30.465,9.882,o),
(34.809,4.56,cs),
(37.271,1.559,o),
(40.836,-0.,o),
(44.442,0.008,c)
);
},
{
closed = 1;
nodes = (
(238.609,35.541,o),
(242.481,36.792,o),
(245.772,39.163,cs),
(254.32,45.34,o),
(256.26,57.319,o),
(250.092,65.866,cs),
(243.932,74.405,o),
(231.952,76.329,o),
(223.413,70.186,c),
(223.397,70.186,l),
(214.858,64.018,o),
(212.91,52.038,o),
(219.078,43.483,cs),
(222.062,39.346,o),
(226.489,36.618,o),
(231.521,35.789,cs),
(232.566,35.632,o),
(233.602,35.541,o),
(234.622,35.541,c)
);
},
{
closed = 1;
nodes = (
(237.946,49.999,l),
(235.393,48.15,o),
(231.787,48.73,o),
(229.938,51.3,cs),
(229.051,52.536,o),
(228.678,54.094,o),
(228.918,55.595,cs),
(229.159,57.087,o),
(230.004,58.447,o),
(231.231,59.334,c)
);
},
{
closed = 1;
nodes = (
(237.009,60.105,o),
(238.369,59.259,o),
(239.256,58.032,cs),
(241.105,55.454,o),
(240.525,51.864,o),
(237.954,50.007,c),
(231.223,59.334,l),
(232.45,60.221,o),
(234.025,60.586,o),
(235.509,60.345,cs)
);
},
{
closed = 1;
nodes = (
(96.812,169.694,o),
(98.752,181.674,o),
(92.584,190.221,cs),
(86.433,198.752,o),
(74.453,200.7,o),
(65.889,194.54,cs),
(57.35,188.372,o),
(55.402,176.393,o),
(61.57,167.837,cs),
(65.309,162.664,o),
(71.162,159.912,o),
(77.106,159.912,cs),
(80.978,159.912,o),
(84.891,161.089,o),
(88.265,163.518,cs)
);
},
{
closed = 1;
nodes = (
(83.597,179.808,o),
(83.017,176.219,o),
(80.431,174.353,cs),
(77.869,172.505,o),
(74.279,173.085,o),
(72.422,175.655,cs),
(70.565,178.233,o),
(71.145,181.831,o),
(73.715,183.688,cs),
(74.727,184.418,o),
(75.904,184.774,o),
(77.073,184.774,cs),
(78.855,184.774,o),
(80.621,183.945,o),
(81.749,182.387,cs)
);
}
);
width = 300;
}
);
unicode = 37;
},
{
glyphname = parenleft;
layers = (
{
layerId = "C73915B0-B20C-482B-87B9-BB72CFBD0103";
shapes = (
{
closed = 1;
nodes = (
(107.378,5.123,o),
(109.409,12.726,o),
(105.968,18.67,cs),
(75.36,71.529,o),
(60.927,117.929,o),
(63.074,156.579,cs),
(67.592,237.932,o),
(105.048,294.96,o),
(105.529,295.673,c),
(109.351,301.369,o),
(107.834,309.087,o),
(102.138,312.917,cs),
(96.434,316.764,o),
(88.716,315.23,o),
(84.886,309.535,cs),
(83.178,307.006,o),
(43.161,246.545,o),
(38.245,157.955,cs),
(35.824,114.39,o),
(51.368,63.338,o),
(84.438,6.209,cs),
(86.751,2.23,o),
(90.921,0.,o),
(95.216,0.,cs),
(97.33,0.,o),
(99.477,0.539,o),
(101.433,1.675,cs)
);
}
);
width = 144;
}
);
unicode = 40;
},
{
glyphname = parenright;
layers = (
{
layerId = "C73915B0-B20C-482B-87B9-BB72CFBD0103";
shapes = (
{
closed = 1;
nodes = (
(92.274,63.338,o),
(107.819,114.398,o),
(105.398,157.955,cs),
(100.482,246.545,o),
(60.465,307.006,o),
(58.757,309.535,cs),
(54.935,315.239,o),
(47.208,316.739,o),
(41.521,312.917,cs),
(35.817,309.095,o),
(34.3,301.377,o),
(38.106,295.673,c),
(38.487,295.11,o),
(76.05,238.039,o),
(80.569,156.579,cs),
(82.716,117.938,o),
(68.282,71.537,o),
(37.675,18.67,cs),
(34.234,12.726,o),
(36.265,5.123,o),
(42.209,1.675,cs),
(44.166,0.539,o),
(46.313,0,o),
(48.427,0,cs),
(52.721,0,o),
(56.9,2.23,o),
(59.204,6.209,cs)
);
}
);
width = 144;
}
);
unicode = 41;
},
{
glyphname = asterisk;
layers = (
{
layerId = "C73915B0-B20C-482B-87B9-BB72CFBD0103";
shapes = (
{
closed = 1;
nodes = (
(179.243,0,o),
(184.69,4.958,o),
(185.196,11.482,cs),
(187.799,45.373,o),
(185.668,88.424,o),
(181.465,131.832,c),
(190.933,125.167,o),
(200.591,119.952,o),
(210.316,116.711,cs),
(265.861,98.19,o),
(281.803,99.981,o),
(289.521,108.876,cs),
(294.495,114.605,o),
(293.799,121.561,o),
(291.693,125.78,cs),
(288.642,131.882,o),
(281.264,134.377,o),
(275.121,131.393,cs),
(273.106,130.415,o),
(271.481,128.964,o),
(270.304,127.24,c),
(264.459,127.497,o),
(250.233,129.619,o),
(218.175,140.305,cs),
(209.545,143.19,o),
(200.856,148.09,o),
(192.251,154.473,c),
(236.471,161.047,o),
(279.705,170.54,o),
(303.316,184.028,cs),
(309.277,187.435,o),
(311.349,195.038,o),
(307.942,200.998,cs),
(304.535,206.959,o),
(296.941,209.023,o),
(290.98,205.633,cs),
(268.281,192.667,o),
(222.958,183.614,o),
(177.536,177.462,c),
(211.344,257.571,o),
(232.973,335.119,o),
(234.523,340.756,cs),
(236.355,347.372,o),
(232.467,354.22,o),
(225.843,356.052,cs),
(219.244,357.842,o),
(212.372,353.996,o),
(210.548,347.372,cs),
(210.233,346.219,o),
(194.705,290.533,o),
(169.784,225.272,c),
(161.312,282.144,o),
(152.607,326.033,o),
(151.827,329.912,cs),
(150.476,336.644,o),
(143.927,341.013,o),
(137.195,339.67,cs),
(130.455,338.327,o),
(126.086,331.769,o),
(127.437,325.038,cs),
(127.653,323.96,o),
(138.82,267.636,o),
(148.304,199.125,c),
(107.731,250.417,o),
(76.734,315.222,o),
(76.261,316.217,cs),
(73.318,322.426,o),
(65.874,325.087,o),
(59.697,322.128,cs),
(53.496,319.193,o),
(50.843,311.773,o),
(53.786,305.564,cs),
(55.917,301.062,o),
(91.06,227.618,o),
(138.057,172.753,c),
(89.335,167.671,o),
(48.762,165.831,o),
(47.892,165.798,c),
(41.028,165.499,o),
(35.714,159.704,o),
(36.012,152.832,cs),
(36.31,145.959,o),
(42.172,140.719,o),
(48.97,140.943,cs),
(52.443,141.101,o),
(90.355,142.817,o),
(136.863,147.6,c),
(115.591,102.833,o),
(91.026,61.696,o),
(64.987,38.268,cs),
(59.888,33.667,o),
(59.474,25.808,o),
(64.066,20.701,cs),
(68.651,15.594,o),
(76.518,15.188,o),
(81.625,19.781,cs),
(109.083,44.494,o),
(134.534,85.912,o),
(156.478,130.937,c),
(160.706,88.159,o),
(162.895,45.961,o),
(160.391,13.397,cs),
(159.861,6.549,o),
(164.984,0.572,o),
(171.832,0.05,c),
(172.164,0.008,o),
(172.479,0.008,o),
(172.81,0,c)
);
}
);
width = 343;
}
);
unicode = 42;
},
{
glyphname = comma;
layers = (
{
layerId = "C73915B0-B20C-482B-87B9-BB72CFBD0103";
shapes = (
{
closed = 1;
nodes = (
(41.985,0,o),
(44.546,0.779,o),
(46.752,2.379,cs),
(90.475,34.156,o),
(105.157,60.793,o),
(105.762,61.912,cs),
(109.003,67.931,o),
(106.765,75.409,o),
(100.763,78.691,cs),
(94.769,81.974,o),
(87.217,79.761,o),
(83.9,73.784,c),
(83.776,73.551,o),
(70.752,50.563,o),
(32.128,22.492,cs),
(26.573,18.454,o),
(25.338,10.678,o),
(29.375,5.123,cs),
(31.812,1.774,o),
(35.601,-0.,o),
(39.456,0,c)
);
}
);
width = 135;
}
);
unicode = 44;
},
{
glyphname = hyphen;
layers = (
{
layerId = "C73915B0-B20C-482B-87B9-BB72CFBD0103";
shapes = (
{
closed = 1;
nodes = (
(148.123,229.008,o),
(153.37,233.245,o),
(154.431,239.28,cs),
(155.625,246.045,o),
(151.115,252.495,o),
(144.35,253.689,cs),
(71.611,266.522,o),
(32.125,253.796,o),
(30.483,253.241,cs),
(23.992,251.077,o),
(20.493,244.088,o),
(22.624,237.58,cs),
(24.755,231.081,o),
(31.76,227.524,o),
(38.284,229.63,c),
(38.641,229.738,o),
(74.19,240.814,o),
(140.023,229.199,c),
(140.761,229.075,o),
(141.482,229.008,o),
(142.203,229,c)
);
}
);
width = 177;
}
);
unicode = 45;
},
{
glyphname = period;
layers = (
{
layerId = "C73915B0-B20C-482B-87B9-BB72CFBD0103";
shapes = (
{
closed = 1;
nodes = (
(73.017,0,o),
(76.93,1.169,o),
(80.312,3.598,cs),
(88.851,9.766,o),
(90.8,21.745,o),
(84.64,30.301,cs),
(81.655,34.438,o),
(77.228,37.165,o),
(72.196,37.994,cs),
(67.147,38.765,o),
(62.09,37.605,o),
(57.962,34.629,cs),
(53.817,31.652,o),
(51.081,27.234,o),
(50.252,22.185,cs),
(49.431,17.136,o),
(50.633,12.071,o),
(53.618,7.934,cs),
(57.348,2.761,o),
(63.21,0.008,o),
(69.145,0,c)
);
},
{
closed = 1;
nodes = (
(74.567,16.697,o),
(73.713,15.32,o),
(72.503,14.45,cs),
(71.268,13.571,o),
(69.701,13.215,o),
(68.209,13.439,cs),
(66.716,13.679,o),
(65.348,14.525,o),
(64.47,15.743,c),
(73.796,22.475,l),
(74.683,21.24,o),
(75.048,19.689,o),
(74.808,18.189,cs)
);
},
{
closed = 1;
nodes = (
(64.47,15.752,l),
(62.621,18.33,o),
(63.201,21.92,o),
(65.788,23.785,cs),
(66.799,24.514,o),
(67.968,24.863,o),
(69.129,24.863,cs),
(70.911,24.863,o),
(72.677,24.034,o),
(73.796,22.475,c)
);
}
);
width = 138;
}
);
unicode = 46;
},
{
glyphname = zero;
layers = (
{
layerId = "C73915B0-B20C-482B-87B9-BB72CFBD0103";
shapes = (
{
closed = 1;
nodes = (
(336.431,456.253,o),
(305.707,512.934,o),
(258.287,539.496,cs),
(202.062,570.982,o),
(144.27,547.413,o),
(141.833,546.393,c),
(141.443,546.219,o),
(141.054,546.045,o),
(140.68,545.838,c),
(136.693,543.666,o),
(43.004,490.5,o),
(43.004,311.09,cs),
(43.004,142.846,o),
(64.766,29.816,o),
(170.948,25.091,cs),
(174.314,24.933,o),
(177.647,24.867,o),
(180.938,24.867,cs),
(231.675,24.867,o),
(274.287,42.583,o),
(304.629,76.416,cs),
(355.847,133.536,o),
(370.977,232.655,o),
(349.604,371.02,cs)
);
},
{
closed = 1;
nodes = (
(251.787,54.737,o),
(205.171,48.494,o),
(172.059,49.929,cs),
(96.112,53.319,o),
(67.875,124.094,o),
(67.875,311.09,c),
(67.883,469.136,o),
(143.781,518.753,o),
(152.038,523.686,c),
(157.924,525.891,o),
(203.695,541.734,o),
(246.39,517.642,cs),
(286.648,494.952,o),
(313.102,444.331,o),
(325.023,367.207,cs),
(344.928,238.4,o),
(331.473,143.576,o),
(286.117,93.013,cs)
);
}
);
width = 402;
}
);
unicode = 48;
},
{
glyphname = one;
layers = (
{
layerId = "C73915B0-B20C-482B-87B9-BB72CFBD0103";
shapes = (
{
closed = 1;
nodes = (
(281.523,585.316,o),
(275.795,584.363,o),
(272.048,580.616,cs),
(270.796,579.364,o),
(240.71,548.267,o),
(182.686,403.203,cs),
(126.296,262.227,o),
(26.613,133.23,o),
(25.618,131.936,cs),
(21.407,126.514,o),
(22.377,118.697,o),
(27.799,114.493,cs),
(33.212,110.282,o),
(41.022,111.26,o),
(45.25,116.674,cs),
(46.27,117.984,o),
(148.05,249.65,o),
(205.775,393.976,cs),
(229.319,452.845,o),
(248.022,492.224,o),
(261.726,518.049,c),
(242.493,362.539,o),
(207.018,86.514,o),
(196.871,56.055,cs),
(182.438,12.747,ls),
(180.266,6.231,o),
(183.789,-0.816,o),
(190.305,-2.98,cs),
(191.607,-3.419,o),
(192.933,-3.618,o),
(194.235,-3.618,cs),
(199.441,-3.618,o),
(204.291,-0.327,o),
(206.032,4.879,cs),
(220.465,48.188,ls),
(235.131,92.193,o),
(290.833,550.828,o),
(293.196,570.327,cs),
(293.834,575.6,o),
(291.066,580.682,o),
(286.282,583.003,cs)
);
}
);
width = 334;
}
);
unicode = 49;
},
{
glyphname = two;
layers = (
{
layerId = "C73915B0-B20C-482B-87B9-BB72CFBD0103";
shapes = (
{
closed = 1;
nodes = (
(229.9,18.144,o),
(112.676,32.9,o),
(62.42,41.415,c),
(105.695,75.189,o),
(199.939,156.036,o),
(258.817,260.577,cs),
(333.057,392.409,o),
(360.489,482.475,o),
(342.682,535.906,cs),
(314.801,619.572,o),
(106.881,559.21,o),
(83.262,552.039,cs),
(76.687,550.049,o),
(72.973,543.102,o),
(74.971,536.528,cs),
(76.969,529.962,o),
(83.9,526.248,o),
(90.482,528.237,c),
(91.021,528.403,o),
(144.908,544.627,o),
(201.108,551.699,cs),
(269.23,560.238,o),
(311.145,551.865,o),
(319.087,528.038,cs),
(338.081,471.059,o),
(285.014,357.781,o),
(237.146,272.788,cs),
(163.288,141.644,o),
(26.705,45.717,o),
(25.337,44.764,cs),
(21.317,41.97,o),
(19.31,37.07,o),
(20.214,32.262,cs),
(21.118,27.445,o),
(24.757,23.607,o),
(29.524,22.463,cs),
(34.084,21.36,o),
(121.679,0.759,o),
(267.016,0.759,cs),
(304.621,0.759,o),
(346.114,2.143,o),
(391.014,5.6,cs),
(397.862,6.123,o),
(402.985,12.1,o),
(402.455,18.948,cs),
(401.924,25.796,o),
(395.914,31.126,o),
(389.091,30.388,cs)
);
}
);
width = 429;
}
);
unicode = 50;
},
{
glyphname = three;
layers = (
{
layerId = "C73915B0-B20C-482B-87B9-BB72CFBD0103";
shapes = (
{
closed = 1;
nodes = (
(435.021,258.67,o),
(356.031,292.884,o),
(225.185,324.023,c),
(352.458,404.032,o),
(332.503,522.02,o),
(313.784,559.45,cs),
(307.027,572.972,o),
(295.686,582.1,o),
(280.084,586.585,cs),
(208.306,607.261,o),
(57.953,516.432,o),
(51.586,512.552,cs),
(45.717,508.979,o),
(43.86,501.327,o),
(47.433,495.466,cs),
(50.998,489.596,o),
(58.65,487.731,o),
(64.519,491.304,cs),
(105.308,516.125,o),
(222.35,577.299,o),
(273.211,562.675,cs),
(282.09,560.114,o),
(287.918,555.554,o),
(291.533,548.316,cs),
(292.196,546.998,o),
(350.162,412.571,o),
(185.458,330.215,cs),
(180.749,327.861,o),
(178.03,322.796,o),
(178.677,317.573,cs),
(179.323,312.35,o),
(183.178,308.097,o),
(188.327,306.961,cs),
(324.934,276.602,o),
(412.728,245.298,o),
(428.273,183.112,cs),
(436.596,149.81,o),
(440.758,102.73,o),
(413.309,67.562,cs),
(386.456,33.182,o),
(334.037,15.739,o),
(257.509,15.739,cs),
(83.562,15.739,o),
(54.281,40.901,o),
(51.794,43.429,cs),
(48.37,48.602,o),
(41.555,50.501,o),
(35.876,47.674,cs),
(29.733,44.598,o),
(27.246,37.137,o),
(30.314,30.985,cs),
(35.022,21.576,o),
(65.307,-9.131,o),
(257.509,-9.131,cs),
(342.095,-9.131,o),
(401.105,11.52,o),
(432.907,52.25,cs),
(466.532,95.318,o),
(462.072,150.465,o),
(452.398,189.156,cs)
);
}
);
width = 493;
}
);
unicode = 51;
},
{
glyphname = four;
layers = (
{
layerId = "C73915B0-B20C-482B-87B9-BB72CFBD0103";
shapes = (
{
closed = 1;
nodes = (
(380.459,360.583,l),
(373.777,361.578,o),
(367.617,357.084,o),
(366.423,350.502,cs),
(341.179,211.664,l),
(65.825,211.664,l),
(73.768,233.393,o),
(88.217,277.945,o),
(109.184,361.818,cs),
(142.801,496.27,o),
(110.319,596.425,o),
(108.918,600.628,cs),
(106.746,607.136,o),
(99.708,610.643,o),
(93.208,608.488,cs),
(86.692,606.324,o),
(83.169,599.294,o),
(85.316,592.769,cs),
(85.639,591.807,o),
(116.819,494.894,o),
(85.059,367.853,cs),
(52.984,239.553,o),
(36.453,205.065,o),
(36.312,204.783,c),
(34.389,200.928,o),
(34.588,196.344,o),
(36.859,192.688,cs),
(39.122,189.023,o),
(43.127,186.785,o),
(47.438,186.785,cs),
(336.653,186.785,l),
(300.176,-13.84,ls),
(298.949,-20.597,o),
(303.425,-27.072,o),
(310.182,-28.299,c),
(310.936,-28.439,o),
(311.683,-28.498,o),
(312.429,-28.498,c),
(318.323,-28.498,o),
(323.554,-24.286,o),
(324.649,-18.292,cs),
(361.938,186.785,l),
(362.104,186.785,l),
(368.438,186.785,o),
(373.76,191.544,o),
(374.465,197.844,cs),
(391.029,346.895,ls),
(391.767,353.561,o),
(387.099,359.605,o),
(380.475,360.574,c)
);
}
);
width = 429;
}
);
unicode = 52;
},
{
glyphname = five;
layers = (
{
layerId = "C73915B0-B20C-482B-87B9-BB72CFBD0103";
shapes = (
{
closed = 1;
nodes = (
(337.704,311.703,l),
(250.416,374.054,o),
(171.26,333.482,o),
(130.464,302.211,c),
(172.189,510.836,l),
(383.939,559.707,ls),
(390.63,561.258,o),
(394.808,567.931,o),
(393.258,574.622,cs),
(391.716,581.32,o),
(385.059,585.441,o),
(378.344,583.948,cs),
(158.767,533.278,ls),
(154.008,532.175,o),
(150.327,528.387,o),
(149.374,523.595,cs),
(98.703,270.235,ls),
(97.593,264.697,o),
(100.37,259.109,o),
(105.443,256.631,cs),
(110.517,254.16,o),
(116.635,255.404,o),
(120.325,259.69,cs),
(124.171,264.158,o),
(215.862,368.193,o),
(323.238,291.458,cs),
(385.68,246.856,o),
(420.831,185.5,o),
(414.978,131.331,cs),
(410.717,91.894,o),
(385.639,61.27,o),
(342.463,42.758,cs),
(229.491,-5.649,o),
(31.444,42.899,o),
(29.455,43.388,cs),
(22.806,45.046,o),
(16.049,41.,o),
(14.383,34.335,cs),
(12.716,27.669,o),
(16.77,20.929,o),
(23.428,19.263,cs),
(28.974,17.878,o),
(117.058,-3.734,o),
(211.07,-3.734,cs),
(260.149,-3.734,o),
(310.86,2.16,o),
(352.254,19.901,cs),
(403.438,41.837,o),
(434.494,80.47,o),
(439.7,128.662,cs),
(446.515,191.743,o),
(407.426,261.878,o),
(337.688,311.703,c)
);
}
);
width = 477;
}
);
unicode = 53;
},
{
glyphname = six;
layers = (
{
layerId = "C73915B0-B20C-482B-87B9-BB72CFBD0103";
shapes = (
{
closed = 1;
nodes = (
(303.192,222.135,o),
(227.966,218.388,o),
(194.141,193.011,cs),
(159.471,167.004,o),
(144.673,92.259,o),
(170.92,35.097,c),
(151.33,38.48,o),
(133.838,45.294,o),
(119.487,53.925,cs),
(78.143,78.779,o),
(56.953,119.75,o),
(62.79,163.522,cs),
(70.632,222.292,o),
(94.94,314.779,o),
(166.186,421.649,cs),
(233.313,522.343,o),
(285.815,545.771,o),
(318.04,547.703,cs),
(353.68,549.643,o),
(373.767,526.969,o),
(374.662,525.916,cs),
(379.065,520.693,o),
(386.874,519.997,o),
(392.13,524.374,cs),
(397.403,528.768,o),
(398.116,536.619,o),
(393.722,541.883,cs),
(392.586,543.243,o),
(365.51,575.011,o),
(317.219,572.557,cs),
(261.956,569.606,o),
(204.181,523.471,o),
(145.494,435.436,cs),
(71.611,324.611,o),
(46.334,228.178,o),
(38.143,166.805,cs),
(31.055,113.706,o),
(57.31,62.289,o),
(106.679,32.61,cs),
(130.928,18.028,o),
(162.796,7.847,o),
(198.502,7.847,cs),
(236.563,7.847,o),
(278.984,19.42,o),
(321.149,49.589,cs),
(373.311,86.903,o),
(398.141,121.267,o),
(394.941,151.7,cs),
(392.744,172.559,o),
(377.879,189.546,o),
(351.947,200.862,cs)
);
},
{
closed = 1;
nodes = (
(270.006,43.587,o),
(233.338,33.199,o),
(200.458,32.768,c),
(168.814,81.855,o),
(183.016,153.566,o),
(209.055,173.106,cs),
(223.754,184.132,o),
(250.233,189.844,o),
(277.799,189.844,cs),
(300.439,189.844,o),
(323.818,185.989,o),
(342.007,178.063,cs),
(354.028,172.816,o),
(368.677,163.539,o),
(370.194,149.097,cs),
(371.429,137.342,o),
(364.822,111.418,o),
(306.674,69.809,cs)
);
}
);
width = 433;
}
);
unicode = 54;
},
{
glyphname = seven;
layers = (
{
layerId = "C73915B0-B20C-482B-87B9-BB72CFBD0103";
shapes = (
{
closed = 1;
nodes = (
(409.525,279.636,l),
(305.258,294.534,l),
(315.87,314.058,o),
(326.44,334.8,o),
(336.463,358.179,cs),
(341.901,370.854,ls),
(390.524,484.092,o),
(408.713,526.472,o),
(349.437,565.983,cs),
(294.05,602.9,o),
(83.468,555.753,o),
(59.641,550.256,cs),
(52.951,548.706,o),
(48.773,542.033,o),
(50.323,535.342,cs),
(51.873,528.635,o),
(58.555,524.515,o),
(65.237,526.016,cs),
(151.199,545.863,o),
(300.632,568.644,o),
(335.642,545.291,cs),
(376.405,518.115,o),
(368.397,495.615,o),
(319.053,380.67,cs),
(313.606,367.978,ls),
(302.605,342.303,o),
(290.791,319.703,o),
(278.961,298.298,c),
(164.447,314.663,ls),
(157.716,315.566,o),
(151.349,310.907,o),
(150.379,304.109,cs),
(149.409,297.311,o),
(154.134,291.011,o),
(160.932,290.041,cs),
(265.937,275.035,l),
(226.89,205.761,o),
(190.056,140.21,o),
(190.056,12.971,cs),
(190.056,6.106,o),
(195.619,0.535,o),
(202.492,0.535,cs),
(209.364,0.535,o),
(214.927,6.106,o),
(214.927,12.971,cs),
(214.927,133.901,o),
(248.693,193.799,o),
(287.799,263.172,cs),
(289.316,265.866,o),
(290.833,268.552,o),
(292.358,271.271,c),
(406.018,255.031,ls),
(412.8,254.077,o),
(419.117,258.786,o),
(420.087,265.584,cs),
(421.057,272.382,o),
(416.331,278.683,o),
(409.533,279.653,c)
);
}
);
width = 453;
}
);
unicode = 55;
},
{
glyphname = eight;
layers = (
{
layerId = "C73915B0-B20C-482B-87B9-BB72CFBD0103";
shapes = (
{
closed = 1;
nodes = (
(209.81,569.225,o),
(150.128,594.054,o),
(78.384,553.075,cs),
(9.326,513.605,o),
(48.091,442.98,o),
(97.17,353.553,cs),
(110.716,328.864,o),
(125.44,302.037,o),
(139.84,272.929,c),
(117.713,237.646,o),
(95.221,204.717,o),
(74.993,180.451,cs),
(44.966,144.413,o),
(45.878,111.492,o),
(51.929,90.203,cs),
(62.044,54.654,o),
(94.442,23.864,o),
(136.49,9.853,cs),
(144.101,7.308,o),
(151.877,6.073,o),
(159.571,6.073,cs),
(177.13,6.073,o),
(194.241,12.548,o),
(207.986,24.9,cs),
(227.916,42.799,o),
(236.438,69.013,o),
(230.776,95.028,cs),
(216.326,161.425,o),
(193.03,219.896,o),
(168.267,271.412,c),
(206.966,334.145,o),
(244.09,402.755,o),
(268.091,448.609,cs),
(284.845,480.61,o),
(276.074,519.549,o),
(247.241,541.162,cs)
);
},
{
closed = 1;
nodes = (
(210.216,72.561,o),
(204.57,55.243,o),
(191.372,43.396,cs),
(178.34,31.69,o),
(160.764,27.976,o),
(144.358,33.439,cs),
(110.525,44.714,o),
(83.632,69.668,o),
(75.855,97.009,cs),
(69.439,119.575,o),
(75.573,142.291,o),
(94.102,164.534,cs),
(112.548,186.669,o),
(132.553,215.246,o),
(152.549,246.4,c),
(174.095,199.776,o),
(193.851,147.721,o),
(206.477,89.722,cs)
);
},
{
closed = 1;
nodes = (
(227.675,425.023,o),
(192.873,360.102,o),
(155.177,297.833,c),
(142.857,321.983,o),
(130.497,344.516,o),
(118.973,365.515,cs),
(67.59,459.138,o),
(44.924,505.307,o),
(90.72,531.479,cs),
(113.468,544.478,o),
(134.783,549.544,o),
(154.207,549.544,cs),
(186.042,549.544,o),
(212.778,535.923,o),
(232.318,521.274,cs),
(251.344,506.998,o),
(257.123,481.298,o),
(246.055,460.133,cs)
);
}
);
width = 314;
}
);
unicode = 56;
},
{
glyphname = nine;
layers = (
{
layerId = "C73915B0-B20C-482B-87B9-BB72CFBD0103";
shapes = (
{
closed = 1;
nodes = (
(304.924,478.487,o),
(299.005,479.573,o),
(294.263,477.368,cs),
(285.533,473.289,o),
(286.404,463.548,o),
(286.918,457.728,cs),
(289.985,423.108,o),
(281.852,394.167,o),
(263.406,374.013,cs),
(241.454,350.029,o),
(205.565,337.876,o),
(156.752,337.876,cs),
(124.909,337.876,o),
(76.129,366.278,o),
(60.957,402.896,cs),
(49.227,431.208,o),
(57.931,460.199,o),
(86.807,489.082,cs),
(168.955,571.223,o),
(274.225,491.478,o),
(278.669,488.046,cs),
(284.082,483.843,o),
(291.884,484.821,o),
(296.112,490.243,cs),
(300.331,495.665,o),
(299.353,503.483,o),
(293.931,507.686,cs),
(292.671,508.672,o),
(166.982,604.425,o),
(69.231,506.666,cs),
(23.543,460.978,o),
(27.025,419.833,o),
(37.985,393.371,cs),
(57.608,346.008,o),
(116.32,313.005,o),
(156.752,313.005,cs),
(212.836,313.005,o),
(254.892,327.878,o),
(281.753,357.217,cs),
(284.936,360.699,o),
(287.879,364.363,o),
(290.574,368.202,c),
(285.367,318.65,o),
(270.843,252.519,o),
(235.974,177.699,cs),
(194.431,88.561,o),
(195.691,43.645,o),
(195.766,41.771,cs),
(196.031,35.081,o),
(201.536,29.866,o),
(208.185,29.866,c),
(208.326,29.866,o),
(208.467,29.866,o),
(208.608,29.866,c),
(215.439,30.09,o),
(220.803,35.835,o),
(220.62,42.666,c),
(220.62,43.073,o),
(219.974,84.483,o),
(258.515,167.178,cs),
(334.347,329.884,o),
(320.784,462.645,o),
(308.622,474.79,cs)
);
}
);
width = 359;
}
);
unicode = 57;
},
{
glyphname = question;
layers = (
{
layerId = "C73915B0-B20C-482B-87B9-BB72CFBD0103";
shapes = (
{
closed = 1;
nodes = (
(81.238,0,o),
(85.11,1.252,o),
(88.401,3.623,cs),
(92.538,6.607,o),
(95.265,11.026,o),
(96.086,16.075,cs),
(96.907,21.124,o),
(95.713,26.181,o),
(92.72,30.326,cs),
(86.56,38.865,o),
(74.573,40.788,o),
(66.042,34.645,c),
(66.025,34.645,l),
(57.486,28.477,o),
(55.538,16.498,o),
(61.706,7.942,cs),
(64.691,3.805,o),
(69.118,1.078,o),
(74.15,0.249,cs),
(75.194,0.091,o),
(76.231,0.,o),
(77.25,0,c)
);
},
{
closed = 1;
nodes = (
(80.566,14.458,l),
(78.013,12.61,o),
(74.407,13.19,o),
(72.558,15.76,cs),
(70.701,18.338,o),
(71.281,21.936,o),
(73.851,23.793,c)
);
},
{
closed = 1;
nodes = (
(73.86,23.793,l),
(76.421,25.634,o),
(80.028,25.07,o),
(81.885,22.492,cs),
(83.733,19.913,o),
(83.153,16.324,o),
(80.583,14.467,c)
);
},
{
closed = 1;
nodes = (
(321.093,334.696,o),
(284.674,444.476,o),
(222.488,496.299,cs),
(166.877,542.625,o),
(46.609,456.945,o),
(33.08,447.038,cs),
(27.542,442.967,o),
(26.348,435.191,o),
(30.41,429.653,cs),
(34.464,424.123,o),
(42.249,422.93,o),
(47.787,426.975,cs),
(78.03,449.127,o),
(172.108,505.924,o),
(206.571,477.19,cs),
(283.604,412.998,o),
(254.306,289.945,o),
(121.836,121.362,cs),
(117.591,115.965,o),
(118.536,108.147,o),
(123.933,103.902,cs),
(126.213,102.112,o),
(128.924,101.249,o),
(131.61,101.249,cs),
(135.299,101.249,o),
(138.947,102.874,o),
(141.401,106.,cs)
);
}
);
width = 311;
}
);
unicode = 63;
},
{
glyphname = alef;
layers = (
{
layerId = "C73915B0-B20C-482B-87B9-BB72CFBD0103";
shapes = (
{
closed = 1;
nodes = (
(111.171,533.265,o),
(105.07,528.075,o),
(104.572,521.219,cs),
(104.265,516.883,o),
(73.152,86.749,o),
(32.894,-13.92,cs),
(30.341,-20.295,o),
(33.441,-27.533,o),
(39.825,-30.086,cs),
(41.342,-30.691,o),
(42.901,-30.981,o),
(44.443,-30.981,cs),
(49.375,-30.981,o),
(54.043,-28.022,o),
(55.991,-23.164,cs),
(97.683,81.07,o),
(128.117,501.587,o),
(129.393,519.436,cs),
(129.891,526.284,o),
(124.734,532.237,o),
(117.862,532.734,cs)
);
},
{
closed = 1;
nodes = (
(544.513,424.305,o),
(452.176,434.237,o),
(354.334,415.965,cs),
(221.449,391.161,o),
(144.067,325.7,o),
(130.562,226.665,cs),
(124.32,180.877,o),
(136.266,139.683,o),
(166.061,104.242,cs),
(226.216,32.696,o),
(354.21,-8.689,o),
(536.207,-15.429,c),
(536.679,-15.429,l),
(543.336,-15.429,o),
(548.849,-10.164,o),
(549.098,-3.466,cs),
(549.347,3.398,o),
(543.999,9.169,o),
(537.135,9.426,cs),
(364.846,15.809,o),
(239.82,55.163,o),
(185.096,120.25,cs),
(160.009,150.095,o),
(149.953,184.765,o),
(155.209,223.307,cs),
(184.292,436.608,o),
(542.06,399.55,o),
(545.674,399.161,cs),
(552.398,398.39,o),
(558.632,403.314,o),
(559.395,410.154,cs),
(560.157,416.977,o),
(555.241,423.12,o),
(548.41,423.874,cs)
);
}
);
width = 589;
}
);
unicode = 1488;
},
{
glyphname = bet;
layers = (
{
layerId = "C73915B0-B20C-482B-87B9-BB72CFBD0103";
shapes = (
{
closed = 1;
nodes = (
(333.732,476.844,o),
(152.158,444.255,o),
(150.351,443.923,cs),
(143.611,442.638,o),
(139.184,436.138,o),
(140.469,429.398,cs),
(141.737,422.658,o),
(148.278,418.231,o),
(154.985,419.491,cs),
(161.791,420.752,o),
(322.341,449.096,o),
(415.914,308.75,cs),
(455.276,249.698,o),
(458.302,174.521,o),
(423.11,129.986,cs),
(386.898,84.157,o),
(316.322,77.558,o),
(224.333,111.382,c),
(148.344,155.926,o),
(95.958,213.154,o),
(68.617,281.491,cs),
(63.41,294.49,o),
(54.714,293.86,o),
(51.207,292.998,cs),
(38.34,289.79,o),
(30.581,287.858,o),
(62.233,-4.864,cs),
(62.921,-11.239,o),
(68.31,-15.965,o),
(74.577,-15.965,c),
(75.025,-15.965,o),
(75.473,-15.94,o),
(75.929,-15.89,c),
(82.76,-15.152,o),
(87.692,-9.017,o),
(86.955,-2.195,cs),
(77.736,83.113,o),
(69.064,176.146,o),
(65.823,230.481,c),
(97.948,174.919,o),
(147.184,127.582,o),
(212.727,89.355,cs),
(214.675,88.435,ls),
(354.168,36.778,o),
(417.364,82.632,o),
(442.608,114.566,cs),
(484.292,167.317,o),
(481.772,254.788,o),
(436.598,322.536,cs)
);
}
);
width = 511;
}
);
unicode = 1489;
},
{
glyphname = uni05d2;
layers = (
{
layerId = "C73915B0-B20C-482B-87B9-BB72CFBD0103";
shapes = (
{
closed = 1;
nodes = (
(250.078,-0.503,o),
(152.941,7.571,o),
(105.678,44.546,cs),
(75.916,67.825,o),
(66.871,100.041,o),
(61.946,144.477,cs),
(52.487,229.552,o),
(108.173,319.22,o),
(176.51,328.978,cs),
(318.05,349.206,o),
(397.786,309.761,o),
(398.549,309.371,c),
(402.926,307.116,o),
(408.282,307.672,o),
(412.12,310.814,cs),
(415.959,313.956,o),
(417.551,319.079,o),
(416.191,323.846,cs),
(353.607,542.893,ls),
(351.709,549.5,o),
(344.803,553.305,o),
(338.237,551.432,cs),
(331.63,549.541,o),
(327.808,542.66,o),
(329.698,536.061,cs),
(385.384,341.165,l),
(350.134,352.705,o),
(277.818,368.581,o),
(173.003,353.6,cs),
(90.929,341.878,o),
(26.215,240.894,o),
(37.225,141.733,cs),
(41.652,101.882,o),
(49.776,56.708,o),
(90.357,24.956,cs),
(125.434,-2.485,o),
(180.564,-16.006,o),
(259.902,-16.006,cs),
(301.652,-16.006,o),
(350.126,-12.259,o),
(405.878,-4.823,cs),
(412.684,-3.919,o),
(417.468,2.34,o),
(416.564,9.147,cs),
(415.66,15.953,o),
(409.393,20.72,o),
(402.587,19.824,cs)
);
}
);
width = 454;
}
);
unicode = 1490;
},
{
glyphname = uni05d3;
layers = (
{
layerId = "C73915B0-B20C-482B-87B9-BB72CFBD0103";
shapes = (
{
closed = 1;
nodes = (
(313.566,485.521,l),
(306.619,509.024,o),
(287.626,540.627,o),
(236.566,557.647,cs),
(140.722,589.589,o),
(48.409,498.753,o),
(44.529,494.873,cs),
(39.671,490.023,o),
(39.671,482.155,o),
(44.529,477.297,cs),
(49.387,472.431,o),
(57.255,472.439,o),
(62.113,477.281,cs),
(62.967,478.126,o),
(147.545,561.112,o),
(228.707,534.053,cs),
(261.072,523.267,o),
(282.171,504.042,o),
(289.723,478.475,cs),
(298.088,450.147,o),
(288.471,420.757,o),
(275.224,404.193,cs),
(268.857,396.16,ls),
(255.733,379.497,o),
(239.244,358.539,o),
(217.871,339.571,c),
(204.018,352.827,o),
(187.487,363.007,o),
(168.909,369.482,cs),
(134.612,381.445,o),
(98.408,378.867,o),
(69.583,362.394,cs),
(45.872,348.847,o),
(33.893,333.743,o),
(34.001,317.518,cs),
(34.067,307.437,o),
(39.033,292.714,o),
(62.37,279.781,cs),
(86.851,266.21,o),
(116.456,263.2,o),
(145.721,271.292,cs),
(172.391,278.67,o),
(195.23,290.965,o),
(214.754,305.224,c),
(220.234,297.497,o),
(224.877,288.975,o),
(228.566,279.74,cs),
(255.219,213.119,o),
(201.083,61.34,o),
(162.757,7.693,cs),
(158.77,2.106,o),
(160.063,-5.662,o),
(165.651,-9.658,cs),
(167.848,-11.217,o),
(170.368,-11.971,o),
(172.871,-11.971,cs),
(176.751,-11.971,o),
(180.573,-10.164,o),
(183.002,-6.765,cs),
(217.78,41.932,o),
(284.915,205.865,o),
(251.662,288.983,cs),
(247.028,300.565,o),
(241.142,311.251,o),
(234.17,320.884,c),
(257.565,341.602,o),
(275.224,364.019,o),
(288.422,380.773,cs),
(294.656,388.657,ls),
(315.755,415.021,o),
(323.175,453.04,o),
(313.591,485.521,c)
);
},
{
closed = 1;
nodes = (
(116.116,288.925,o),
(93.169,291.147,o),
(74.408,301.543,cs),
(64.7,306.923,o),
(58.888,312.959,o),
(58.855,317.684,cs),
(58.838,320.005,o),
(60.455,328.553,o),
(81.902,340.806,cs),
(94.81,348.184,o),
(110.139,351.931,o),
(126.04,351.931,cs),
(137.538,351.931,o),
(149.335,349.967,o),
(160.71,346.004,cs),
(174.753,341.104,o),
(187.388,333.585,o),
(198.19,323.861,c),
(181.228,311.773,o),
(161.688,301.535,o),
(139.072,295.276,cs)
);
}
);
width = 355;
}
);
unicode = 1491;
},
{
glyphname = hehebrew;
layers = (
{
layerId = "C73915B0-B20C-482B-87B9-BB72CFBD0103";
shapes = (
{
closed = 1;
nodes = (
(446.352,363.607,l),
(428.486,434.729,o),
(390.566,485.126,o),
(336.704,509.367,cs),
(165.941,586.226,o),
(39.,487.115,o),
(33.669,482.871,cs),
(28.313,478.576,o),
(27.443,470.759,o),
(31.737,465.395,cs),
(36.032,460.031,o),
(43.841,459.152,o),
(49.213,463.455,cs),
(50.399,464.408,o),
(169.414,557.376,o),
(326.499,486.701,cs),
(373.836,465.395,o),
(406.044,421.945,o),
(422.219,357.563,cs),
(452.644,236.45,o),
(415.528,76.24,o),
(363.2,8.201,cs),
(359.005,2.755,o),
(360.025,-5.046,o),
(365.463,-9.241,cs),
(367.726,-10.974,o),
(370.396,-11.82,o),
(373.041,-11.82,cs),
(376.763,-11.82,o),
(380.46,-10.153,o),
(382.898,-6.97,cs),
(439.885,67.112,o),
(478.974,233.698,o),
(446.335,363.615,c)
);
},
{
closed = 1;
nodes = (
(124.298,252.508,o),
(119.465,246.299,o),
(120.302,239.492,cs),
(120.46,238.199,o),
(135.631,109.376,o),
(80.244,6.502,cs),
(76.977,0.458,o),
(79.249,-7.086,o),
(85.293,-10.344,cs),
(87.166,-11.355,o),
(89.189,-11.836,o),
(91.179,-11.836,cs),
(95.606,-11.836,o),
(99.892,-9.465,o),
(102.13,-5.287,cs),
(161.373,104.717,o),
(145.671,236.989,o),
(144.974,242.568,cs),
(144.12,249.383,o),
(137.994,254.233,o),
(131.105,253.362,cs)
);
}
);
width = 501;
}
);
unicode = 1492;
},
{
glyphname = vav;
layers = (
{
layerId = "C73915B0-B20C-482B-87B9-BB72CFBD0103";
shapes = (
{
closed = 1;
nodes = (
(144.097,548.721,o),
(137.523,553.023,o),
(130.799,551.647,cs),
(124.076,550.263,o),
(119.748,543.68,o),
(121.141,536.957,cs),
(121.78,533.856,o),
(183.401,224.321,o),
(36.091,3.36,cs),
(32.277,-2.352,o),
(33.828,-10.079,o),
(39.54,-13.884,cs),
(41.662,-15.293,o),
(44.058,-15.973,o),
(46.429,-15.973,cs),
(50.441,-15.973,o),
(54.388,-14.033,o),
(56.784,-10.435,cs),
(209.955,219.314,o),
(148.192,528.932,o),
(145.49,541.989,cs)
);
}
);
width = 203;
}
);
unicode = 1493;
},
{
glyphname = zayin;
layers = (
{
layerId = "C73915B0-B20C-482B-87B9-BB72CFBD0103";
shapes = (
{
closed = 1;
nodes = (
(480.287,141.491,l),
(478.115,142.427,ls),
(476.291,143.223,o),
(294.709,222.735,o),
(208.589,308.482,c),
(168.92,357.643,o),
(163.075,413.835,o),
(191.221,475.523,cs),
(212.999,523.242,o),
(247.802,556.544,o),
(248.15,556.876,c),
(253.133,561.593,o),
(253.348,569.469,o),
(248.631,574.451,cs),
(243.914,579.45,o),
(236.046,579.666,o),
(231.064,574.949,cs),
(229.53,573.506,o),
(78.995,428.542,o),
(189.695,292.308,cs),
(190.557,291.354,ls),
(268.039,213.873,o),
(414.528,143.978,o),
(456.776,124.728,c),
(439.731,111.844,o),
(366.834,74.629,o),
(60.043,14.367,cs),
(53.312,13.041,o),
(48.909,6.508,o),
(50.236,-0.232,cs),
(51.405,-6.16,o),
(56.603,-10.272,o),
(62.423,-10.272,c),
(63.219,-10.272,o),
(64.023,-10.197,o),
(64.835,-10.031,c),
(333.341,42.703,o),
(474.923,87.322,o),
(485.667,122.572,cs),
(487.997,130.224,o),
(485.278,136.5,o),
(481.953,139.816,c)
);
}
);
width = 496;
}
);
unicode = 1494;
},
{
glyphname = uni05d7;
layers = (
{
layerId = "C73915B0-B20C-482B-87B9-BB72CFBD0103";
shapes = (
{
closed = 1;
nodes = (
(60.15,17.658,o),
(127.617,230.122,o),
(147.497,329.498,cs),
(162.403,404.011,o),
(150.39,447.618,o),
(141.868,467.05,c),
(170.237,482.172,o),
(262.218,521.103,o),
(412.314,489.501,cs),
(452.058,481.136,o),
(482.027,460.617,o),
(501.393,428.517,cs),
(555.479,338.866,o),
(513.174,187.104,o),
(512.743,185.578,cs),
(512.494,184.525,l),
(512.328,183.68,o),
(495.374,98.804,o),
(438.462,27.656,cs),
(434.167,22.293,o),
(435.038,14.475,o),
(440.401,10.18,cs),
(445.765,5.886,o),
(453.591,6.757,o),
(457.877,12.12,cs),
(516.946,85.962,o),
(535.118,170.904,o),
(536.801,179.269,cs),
(540.125,191.133,o),
(581.287,344.155,o),
(522.716,441.309,cs),
(499.644,479.594,o),
(464.22,503.992,o),
(417.429,513.841,cs),
(224.655,554.414,o),
(122.435,484.883,o),
(118.182,481.907,cs),
(107.654,474.537,l),
(115.364,464.257,l),
(115.629,463.9,o),
(141.47,426.196,o),
(123.107,334.373,cs),
(103.5,236.356,o),
(34.285,18.396,o),
(33.588,16.208,cs),
(31.507,9.666,o),
(35.122,2.669,o),
(41.671,0.589,cs),
(42.923,0.191,o),
(44.192,0,o),
(45.443,0,cs),
(50.716,0,o),
(55.607,3.382,o),
(57.29,8.672,cs)
);
}
);
width = 595;
}
);
unicode = 1495;
},
{
glyphname = tet;
layers = (
{
layerId = "C73915B0-B20C-482B-87B9-BB72CFBD0103";
shapes = (
{
closed = 1;
nodes = (
(371.657,306.625,l),
(367.006,311.682,o),
(359.139,312.005,o),
(354.082,307.355,cs),
(349.025,302.704,o),
(348.701,294.836,o),
(353.352,289.779,cs),
(354.248,288.801,o),
(443.037,191.149,o),
(423.356,113.071,cs),
(414.584,78.277,o),
(384.565,51.781,o),
(334.111,34.322,cs),
(269.504,11.946,o),
(205.553,17.103,o),
(154.045,48.822,cs),
(107.081,77.738,o),
(75.818,126.444,o),
(68.282,182.445,cs),
(60.382,241.148,o),
(65.248,325.66,o),
(89.829,373.602,cs),
(139.471,470.425,o),
(262.673,537.783,o),
(403.683,545.211,cs),
(410.547,545.568,o),
(415.811,551.429,o),
(415.447,558.285,cs),
(415.09,565.15,o),
(409.096,570.339,o),
(402.373,570.049,cs),
(252.667,562.165,o),
(121.299,489.517,o),
(67.685,384.952,cs),
(40.767,332.458,o),
(35.212,241.679,o),
(43.627,179.128,cs),
(52.166,115.708,o),
(87.657,60.494,o),
(141.005,27.648,cs),
(175.443,6.442,o),
(214.631,-4.278,o),
(255.834,-4.269,c),
(283.987,-4.269,o),
(313.095,0.738,o),
(342.243,10.827,cs),
(401.121,31.205,o),
(436.521,63.562,o),
(447.464,107.003,cs),
(470.395,197.972,o),
(375.686,302.239,o),
(371.641,306.633,c)
);
}
);
width = 489;
}
);
unicode = 1496;
},
{
glyphname = yod;
layers = (
{
layerId = "C73915B0-B20C-482B-87B9-BB72CFBD0103";
shapes = (
{
closed = 1;
nodes = (
(72.692,532.896,o),
(66.35,537.613,o),
(59.602,536.643,cs),
(52.804,535.673,o),
(48.078,529.372,o),
(49.048,522.574,c),
(49.181,521.621,o),
(62.28,426.705,o),
(35.485,332.925,cs),
(33.595,326.326,o),
(37.425,319.437,o),
(44.024,317.555,cs),
(45.168,317.232,o),
(46.312,317.074,o),
(47.448,317.074,cs),
(52.853,317.074,o),
(57.836,320.639,o),
(59.394,326.094,cs),
(87.631,424.914,o),
(74.251,522.002,o),
(73.67,526.089,cs)
);
}
);
width = 113;
}
);
unicode = 1497;
},
{
glyphname = uni05da;
layers = (
{
layerId = "C73915B0-B20C-482B-87B9-BB72CFBD0103";
shapes = (
{
closed = 1;
nodes = (
(-1.205,-513.992,o),
(3.031,-511.687,o),
(5.302,-507.6,cs),
(47.973,-430.807,o),
(81.167,-223.516,o),
(98.005,-55.124,cs),
(108.533,50.138,o),
(83.546,150.343,o),
(68.715,204.885,c),
(104.952,179.417,o),
(166.051,153.999,o),
(238.807,123.739,cs),
(254.94,117.024,ls),
(319.157,90.28,o),
(429.923,107.101,o),
(482.069,169.684,cs),
(503.533,195.442,o),
(531.471,251.078,o),
(477.41,334.247,cs),
(365.317,506.702,o),
(174.027,430.961,o),
(172.111,430.174,cs),
(165.761,427.579,o),
(162.727,420.325,o),
(165.313,413.975,cs),
(167.9,407.624,o),
(175.154,404.565,o),
(181.513,407.152,cs),
(188.584,410.028,o),
(355.816,475.679,o),
(456.552,320.692,cs),
(490.658,268.223,o),
(492.871,221.507,o),
(462.96,185.602,cs),
(419.005,132.842,o),
(318.452,117.513,o),
(264.507,139.988,cs),
(248.349,146.712,ls),
(160.099,183.421,o),
(83.886,215.115,o),
(62.414,243.75,cs),
(59.969,247.,o),
(52.532,256.873,o),
(42.31,251.858,cs),
(31.475,246.544,o),
(33.664,238.593,o),
(41.796,209.022,cs),
(55.508,159.139,o),
(84.052,55.353,o),
(73.25,-52.637,cs),
(57.424,-210.965,o),
(24.428,-421.953,o),
(-16.435,-495.513,cs),
(-19.767,-501.523,o),
(-17.604,-509.092,o),
(-11.602,-512.425,cs),
(-9.686,-513.486,o),
(-7.622,-513.992,o),
(-5.574,-514,cs)
);
}
);
width = 545;
}
);
unicode = 1498;
},
{
glyphname = kaf;
layers = (
{
layerId = "C73915B0-B20C-482B-87B9-BB72CFBD0103";
shapes = (
{
closed = 1;
nodes = (
(513.894,335.063,l),
(476.629,434.439,o),
(419.244,499.949,o),
(343.346,529.752,cs),
(222.971,577.032,o),
(101.029,517.284,o),
(95.897,514.714,cs),
(89.754,511.638,o),
(87.267,504.177,o),
(90.335,498.025,cs),
(93.41,491.882,o),
(100.872,489.403,o),
(107.023,492.463,cs),
(108.184,493.043,o),
(224.09,549.865,o),
(334.26,506.598,cs),
(403.326,479.48,o),
(455.928,418.828,o),
(490.615,326.325,cs),
(519.291,249.839,o),
(518.205,186.542,o),
(487.365,138.185,cs),
(442.813,68.323,o),
(335.761,26.374,o),
(169.184,13.491,c),
(73.364,13.574,o),
(7.929,37.798,o),
(0.227,45.491,cs),
(-4.631,50.349,o),
(-12.498,50.349,o),
(-17.356,45.491,cs),
(-22.215,40.641,o),
(-22.215,32.757,o),
(-17.356,27.907,cs),
(-1.298,11.849,o),
(74.533,-11.38,o),
(169.664,-11.38,c),
(170.145,-11.38,l),
(170.626,-11.347,l),
(345.701,2.125,o),
(459.327,47.928,o),
(508.348,124.813,cs),
(543.615,180.117,o),
(545.488,250.858,o),
(513.911,335.063,c)
);
}
);
width = 575;
}
);
unicode = 1499;
},
{
glyphname = uni05dc;
layers = (
{
layerId = "C73915B0-B20C-482B-87B9-BB72CFBD0103";
shapes = (
{
closed = 1;
nodes = (
(333.646,875.,l),
(330.065,880.852,o),
(322.405,882.701,o),
(316.552,879.103,cs),
(94.173,742.811,o),
(130.518,449.973,o),
(152.23,275.006,cs),
(156.45,241.007,o),
(160.089,211.651,o),
(161.407,188.007,cs),
(164.549,131.376,o),
(137.191,85.829,o),
(80.071,52.627,cs),
(35.875,26.943,o),
(-10.243,18.637,o),
(-10.708,18.554,c),
(-17.464,17.368,o),
(-21.991,10.927,o),
(-20.814,4.162,cs),
(-19.761,-1.882,o),
(-14.513,-6.135,o),
(-8.577,-6.135,c),
(-7.872,-6.135,o),
(-7.159,-6.077,o),
(-6.438,-5.952,c),
(-4.399,-5.596,o),
(43.967,3.034,o),
(91.959,30.765,cs),
(157.304,68.519,o),
(189.901,123.368,o),
(186.237,189.375,cs),
(184.877,213.873,o),
(181.188,243.61,o),
(176.91,278.057,cs),
(154.576,458.014,o),
(120.826,729.969,o),
(329.543,857.888,cs),
(335.404,861.478,o),
(337.236,869.13,o),
(333.646,874.983,c)
);
}
);
width = 239;
}
);
unicode = 1500;
},
{
glyphname = uni05dd;
layers = (
{
layerId = "C73915B0-B20C-482B-87B9-BB72CFBD0103";
shapes = (
{
closed = 1;
nodes = (
(34.999,-100,o),
(39.393,-97.471,o),
(41.573,-93.119,cs),
(71.161,-33.935,o),
(84.185,173.091,o),
(89.449,297.263,c),
(112.936,237.166,o),
(161.592,170.09,o),
(261.987,165.306,cs),
(341.682,161.575,o),
(399.2,196.983,o),
(415.722,260.205,cs),
(430.753,317.732,o),
(405.981,381.069,o),
(359.332,404.398,cs),
(271.529,448.312,o),
(137.782,374.13,o),
(132.128,370.947,cs),
(126.142,367.589,o),
(124.02,360.004,o),
(127.386,354.018,cs),
(130.752,348.033,o),
(138.329,345.902,o),
(144.315,349.276,cs),
(145.583,349.981,o),
(272.085,420.216,o),
(348.206,382.147,cs),
(384.136,364.182,o),
(403.627,312.301,o),
(391.656,266.489,cs),
(378.126,214.733,o),
(331.294,186.902,o),
(263.164,190.152,cs),
(196.245,193.336,o),
(147.307,227.972,o),
(117.719,293.084,cs),
(94.962,343.158,o),
(92.633,393.281,o),
(92.608,393.787,c),
(67.754,393.538,l),
(67.663,389.584,o),
(59.049,-2.531,o),
(19.314,-81.993,cs),
(16.246,-88.145,o),
(18.733,-95.606,o),
(24.876,-98.682,cs),
(26.659,-99.577,o),
(28.557,-100.,o),
(30.439,-100,c)
);
}
);
width = 455;
}
);
unicode = 1501;
},
{
glyphname = mem;
layers = (
{
layerId = "C73915B0-B20C-482B-87B9-BB72CFBD0103";
shapes = (
{
closed = 1;
nodes = (
(108.111,105.146,o),
(113.741,302.024,o),
(114.843,421.155,c),
(140.054,319.914,o),
(187.217,158.104,o),
(241.743,78.352,cs),
(277.3,26.33,o),
(325.085,0.456,o),
(372.779,7.378,cs),
(422.214,14.541,o),
(463.906,56.59,o),
(484.309,119.861,cs),
(534.954,276.921,o),
(479.392,499.383,o),
(476.996,508.776,cs),
(475.305,515.424,o),
(468.557,519.453,o),
(461.883,517.754,cs),
(455.226,516.063,o),
(451.205,509.298,o),
(452.897,502.641,cs),
(453.469,500.411,o),
(509.063,277.675,o),
(460.64,127.496,cs),
(443.214,73.46,o),
(409.041,37.762,o),
(369.214,31.992,cs),
(331.27,26.521,o),
(292.28,48.507,o),
(262.278,92.387,cs),
(188.934,199.655,o),
(128.729,463.792,o),
(120.704,507.938,cs),
(118.673,519.138,o),
(116.335,531.848,o),
(103.858,530.737,cs),
(91.506,529.651,o),
(91.158,517.53,o),
(90.718,502.185,cs),
(90.412,491.59,o),
(90.329,476.336,o),
(90.229,457.608,cs),
(89.632,348.541,o),
(88.389,121.61,o),
(39.202,17.766,cs),
(36.259,11.557,o),
(38.904,4.137,o),
(45.113,1.202,cs),
(46.83,0.39,o),
(48.645,0.,o),
(50.428,0.,cs),
(55.078,0.,o),
(59.547,2.62,o),
(61.669,7.113,cs)
);
}
);
width = 549;
}
);
unicode = 1502;
},
{
glyphname = uni05df;
layers = (
{
layerId = "C73915B0-B20C-482B-87B9-BB72CFBD0103";
shapes = (
{
closed = 1;
nodes = (
(-43.397,-371,o),
(-38.572,-367.767,o),
(-36.798,-362.619,cs),
(155.164,193.536,o),
(104.187,514.951,o),
(103.648,518.134,cs),
(102.504,524.899,o),
(96.112,529.476,o),
(89.322,528.323,cs),
(82.557,527.179,o),
(77.99,520.771,o),
(79.125,513.998,cs),
(79.648,510.872,o),
(129.331,194.929,o),
(-60.318,-354.511,cs),
(-62.556,-361.002,o),
(-59.107,-368.074,o),
(-52.616,-370.32,cs),
(-51.273,-370.784,o),
(-49.905,-371,o),
(-48.554,-371,cs)
);
}
);
width = 155;
}
);
unicode = 1503;
},
{
glyphname = nun;
layers = (
{
layerId = "C73915B0-B20C-482B-87B9-BB72CFBD0103";
shapes = (
{
closed = 1;
nodes = (
(296.245,445.133,l),
(275.618,479.505,o),
(254.42,542.776,o),
(254.204,543.406,c),
(252.032,549.914,o),
(245.027,553.438,o),
(238.478,551.266,cs),
(231.962,549.094,o),
(228.446,542.055,o),
(230.619,535.539,cs),
(231.514,532.836,o),
(252.895,469.051,o),
(274.93,432.325,cs),
(285.243,415.147,o),
(311.374,353.932,o),
(321.87,283.97,cs),
(330.865,223.998,o),
(330.343,141.277,o),
(276.804,87.73,cs),
(166.908,-22.166,o),
(65.177,-68.484,o),
(-126.32,-95.842,cs),
(-133.118,-96.812,o),
(-137.844,-103.112,o),
(-136.874,-109.91,cs),
(-135.987,-116.12,o),
(-130.664,-120.588,o),
(-124.579,-120.588,c),
(-123.991,-120.588,o),
(-123.402,-120.547,o),
(-122.805,-120.464,c),
(74.836,-92.236,o),
(180.114,-44.135,o),
(294.396,70.146,cs),
(410.037,185.788,o),
(318.015,408.888,o),
(296.269,445.125,c)
);
}
);
width = 393;
}
);
unicode = 1504;
},
{
glyphname = samekh;
layers = (
{
layerId = "C73915B0-B20C-482B-87B9-BB72CFBD0103";
shapes = (
{
closed = 1;
nodes = (
(389.703,0.008,o),
(494.261,51.831,o),
(550.991,142.659,cs),
(584.724,196.654,o),
(602.209,269.915,o),
(597.782,338.617,cs),
(592.832,415.236,o),
(562.258,478.856,o),
(511.679,517.762,cs),
(439.238,573.49,o),
(383.933,571.682,o),
(313.889,569.394,cs),
(311.451,569.311,ls),
(202.069,565.755,o),
(133.235,510.973,o),
(81.296,386.146,cs),
(8.118,210.308,o),
(32.997,79.72,o),
(149.558,27.913,cs),
(192.137,8.995,o),
(237.419,0.,o),
(282.203,0,cs)
);
},
{
closed = 1;
nodes = (
(592.061,424.563,o),
(592.94,256.767,o),
(529.901,155.833,cs),
(455.951,37.456,o),
(293.32,-8.763,o),
(159.664,50.645,cs),
(99.444,77.407,o),
(12.18,155.344,o),
(104.252,376.603,cs),
(152.518,492.593,o),
(212.789,541.224,o),
(312.264,544.465,cs),
(314.701,544.54,ls),
(328.538,544.988,o),
(341.437,545.41,o),
(353.748,545.41,cs),
(403.838,545.41,o),
(444.046,538.43,o),
(496.524,498.056,cs)
);
}
);
width = 639;
}
);
unicode = 1505;
},
{
glyphname = ayin;
layers = (
{
layerId = "C73915B0-B20C-482B-87B9-BB72CFBD0103";
shapes = (
{
closed = 1;
nodes = (
(409.441,569.741,l),
(406.448,575.926,o),
(399.02,578.496,o),
(392.827,575.503,cs),
(386.817,572.593,o),
(308.905,534.483,o),
(227.005,479.211,c),
(217.554,510.366,o),
(209.28,537.915,o),
(202.93,559.528,cs),
(163.46,693.706,o),
(209.952,798.131,o),
(210.582,799.524,cs),
(213.459,805.758,o),
(210.731,813.145,o),
(204.505,816.013,cs),
(198.238,818.906,o),
(190.876,816.17,o),
(187.999,809.936,cs),
(185.893,805.36,o),
(136.79,696.276,o),
(179.07,552.506,cs),
(185.968,529.077,o),
(195.096,498.718,o),
(205.533,464.355,c),
(140.048,417.971,o),
(75.782,361.655,o),
(47.23,304.576,cs),
(30.409,270.926,o),
(28.494,235.418,o),
(41.543,199.032,cs),
(75.483,104.44,o),
(205.069,25.84,o),
(268.838,-2.505,cs),
(271.184,-3.533,ls),
(279.027,-6.923,o),
(287.242,-8.59,o),
(295.35,-8.59,cs),
(309.933,-8.59,o),
(324.225,-3.226,o),
(335.682,7.071,cs),
(353.631,23.212,o),
(360.338,47.544,o),
(353.15,70.566,cs),
(327.284,153.56,o),
(273.53,326.429,o),
(234.649,454.042,c),
(319.168,511.784,o),
(402.171,552.39,o),
(403.671,553.111,cs),
(409.847,556.104,o),
(412.434,563.548,o),
(409.433,569.725,c)
);
},
{
closed = 1;
nodes = (
(334.497,46.889,o),
(327.4,33.077,o),
(319.06,25.574,cs),
(308.391,15.983,o),
(294.19,13.636,o),
(281.066,19.307,cs),
(278.952,20.227,ls),
(230.371,41.823,o),
(97.204,117.547,o),
(64.963,207.439,cs),
(54.136,237.607,o),
(55.62,265.744,o),
(69.481,293.467,cs),
(94.866,344.229,o),
(152.691,395.57,o),
(213.235,439.061,c),
(251.934,312.187,o),
(304.072,144.532,o),
(329.423,63.179,cs)
);
}
);
width = 439;
}
);
unicode = 1506;
},
{
glyphname = uni05e3;
layers = (
{
layerId = "C73915B0-B20C-482B-87B9-BB72CFBD0103";
shapes = (
{
closed = 1;
nodes = (
(174.024,-442.983,l),
(174.779,-442.983,o),
(175.558,-442.917,o),
(176.337,-442.768,c),
(183.086,-441.499,o),
(187.521,-434.992,o),
(186.253,-428.243,cs),
(185.49,-424.198,o),
(131.653,-136.242,o),
(112.328,99.625,c),
(159.939,95.198,o),
(225.341,96.723,o),
(307.805,104.226,cs),
(314.644,104.839,o),
(319.685,110.891,o),
(319.063,117.731,cs),
(318.441,124.57,o),
(312.323,129.644,o),
(305.558,128.989,cs),
(210.452,120.351,o),
(149.477,120.798,o),
(110.388,124.819,c),
(109.476,137.42,o),
(108.68,149.839,o),
(108.009,162.001,c),
(146.799,181.45,o),
(197.279,209.446,o),
(248.778,245.509,cs),
(343.254,311.666,o),
(411.069,383.51,o),
(450.357,459.059,cs),
(499.452,553.486,o),
(509.052,630.793,o),
(478.884,688.833,cs),
(452.454,739.677,o),
(394.82,773.427,o),
(316.609,783.856,cs),
(254.921,792.089,o),
(202.783,744.154,o),
(161.456,641.462,cs),
(124.009,548.412,o),
(101.111,426.271,o),
(87.15,342.489,cs),
(80.137,300.408,o),
(79.241,242.483,o),
(82.218,177.056,c),
(70.031,171.145,o),
(59.635,166.387,o),
(51.577,162.805,cs),
(41.073,158.146,o),
(34.582,147.742,o),
(35.021,136.309,cs),
(35.469,124.753,o),
(42.839,114.78,o),
(53.79,110.9,cs),
(63.059,107.608,o),
(74.11,104.914,o),
(86.935,102.808,c),
(105.48,-131.674,o),
(158.671,-416.189,o),
(161.813,-432.861,cs),
(162.94,-438.838,o),
(168.155,-443.,o),
(174.024,-443.,c)
);
},
{
closed = 1;
nodes = (
(84.066,142.95,o),
(84.531,135.713,o),
(85.036,128.4,c),
(75.478,130.199,o),
(67.983,132.247,o),
(62.097,134.336,cs),
(60.331,134.958,o),
(59.917,136.276,o),
(59.875,137.263,c),
(59.792,139.236,o),
(61.202,139.858,o),
(61.666,140.065,c),
(67.991,142.867,o),
(75.37,146.225,o),
(83.644,150.138,c)
);
},
{
closed = 1;
nodes = (
(303.701,759.856,l),
(306.852,759.856,o),
(310.068,759.64,o),
(313.31,759.209,cs),
(353.824,753.812,o),
(426.331,735.996,o),
(456.806,677.367,cs),
(483.029,626.938,o),
(473.429,557.349,o),
(428.28,470.533,cs),
(357.497,334.398,o),
(200.172,237.41,o),
(106.682,189.284,c),
(104.303,248.494,o),
(105.364,300.507,o),
(111.681,338.394,cs),
(129.282,443.979,o),
(181.917,759.848,o),
(303.718,759.848,c)
);
}
);
width = 528;
}
);
unicode = 1507;
},
{
glyphname = pe;
layers = (
{
layerId = "C73915B0-B20C-482B-87B9-BB72CFBD0103";
shapes = (
{
closed = 1;
nodes = (
(353.421,534.693,l),
(235.591,607.208,o),
(50.883,520.135,o),
(43.073,516.396,cs),
(36.881,513.428,o),
(34.269,506.,o),
(37.237,499.808,cs),
(40.205,493.598,o),
(47.65,491.012,o),
(53.826,493.971,cs),
(55.617,494.833,o),
(233.966,578.996,o),
(340.38,513.511,cs),
(465.257,436.669,o),
(471.582,260.234,o),
(471.582,225.647,cs),
(471.582,208.072,o),
(468.639,146.674,o),
(430.678,94.636,cs),
(394.698,45.309,o),
(339.485,20.297,o),
(266.563,20.297,cs),
(187.291,20.297,o),
(144.779,62.146,o),
(123.075,97.256,cs),
(87.808,154.309,o),
(85.288,228.259,o),
(103.186,264.04,cs),
(120.182,298.03,o),
(153.028,324.534,o),
(191.064,334.938,cs),
(217.601,342.201,o),
(242.687,340.02,o),
(259.823,328.953,cs),
(286.427,311.792,o),
(300.753,291.862,o),
(302.402,269.71,cs),
(305.727,225.241,o),
(258.837,183.392,o),
(258.373,182.994,c),
(253.208,178.467,o),
(252.685,170.608,o),
(257.212,165.443,cs),
(261.722,160.278,o),
(269.598,159.756,o),
(274.754,164.283,cs),
(277.067,166.314,o),
(331.377,214.572,o),
(327.207,271.451,cs),
(324.977,301.843,o),
(306.838,328.223,o),
(273.303,349.861,cs),
(250.215,364.75,o),
(217.841,368.058,o),
(184.489,358.939,cs),
(139.755,346.694,o),
(101.048,315.39,o),
(80.935,275.174,cs),
(59.604,232.503,o),
(61.619,149.393,o),
(101.918,84.19,cs),
(126.946,43.7,o),
(175.818,-4.566,o),
(266.555,-4.566,cs),
(448.03,-4.566,o),
(496.437,140.149,o),
(496.437,225.656,cs),
(496.437,262.564,o),
(489.539,450.92,o),
(353.396,534.693,c)
);
}
);
width = 537;
}
);
unicode = 1508;
},
{
glyphname = uni05e5;
layers = (
{
layerId = "C73915B0-B20C-482B-87B9-BB72CFBD0103";
shapes = (
{
closed = 1;
nodes = (
(187.421,-257,l),
(193.714,-257,o),
(199.102,-252.241,o),
(199.774,-245.85,cs),
(201.805,-226.226,o),
(238.332,125.697,o),
(256.314,327.184,c),
(314.976,365.577,o),
(363.963,410.344,o),
(381.389,455.651,cs),
(417.834,550.4,o),
(376.05,679.613,o),
(340.129,702.958,cs),
(330.056,709.508,o),
(318.98,708.778,o),
(311.253,701.043,cs),
(255.916,645.697,o),
(241.292,519.245,o),
(241.292,460.119,cs),
(241.292,445.379,o),
(237.909,401.44,o),
(232.678,342.206,c),
(147.288,287.954,o),
(41.802,245.334,o),
(-12.69,240.376,cs),
(-19.529,239.763,o),
(-24.57,233.711,o),
(-23.948,226.872,cs),
(-23.326,220.024,o),
(-17.208,215.,o),
(-10.443,215.613,cs),
(38.47,220.057,o),
(141.012,257.72,o),
(229.843,310.678,c),
(211.015,103.545,o),
(175.516,-238.579,o),
(175.027,-243.263,cs),
(174.314,-250.094,o),
(179.28,-256.204,o),
(186.111,-256.917,c),
(186.551,-256.967,o),
(186.982,-256.983,o),
(187.413,-256.983,c)
);
},
{
closed = 1;
nodes = (
(330.387,679.356,o),
(337.136,672.102,o),
(345.219,655.347,cs),
(368.34,607.38,o),
(382.26,527.221,o),
(358.177,464.596,cs),
(344.954,430.216,o),
(306.967,393.498,o),
(259.182,359.914,c),
(263.468,409.863,o),
(266.154,446.531,o),
(266.154,460.127,cs),
(266.154,523.905,o),
(282.436,634.713,o),
(327.154,681.744,c)
);
}
);
width = 430;
}
);
unicode = 1509;
},
{
glyphname = tsadi;
layers = (
{
layerId = "C73915B0-B20C-482B-87B9-BB72CFBD0103";
shapes = (
{
closed = 1;
nodes = (
(386.759,313.013,o),
(312.453,342.618,o),
(233.72,368.882,c),
(235.511,370.274,o),
(237.318,371.692,o),
(239.134,373.118,cs),
(250.566,382.038,ls),
(282.459,406.843,o),
(295.839,446.976,o),
(285.493,486.786,cs),
(274.069,530.758,o),
(237.31,562.643,o),
(189.549,569.988,cs),
(94.534,584.604,o),
(49.443,540.723,o),
(47.57,538.849,cs),
(42.737,534.016,o),
(42.745,526.232,o),
(47.537,521.357,cs),
(52.337,516.49,o),
(60.188,516.449,o),
(65.087,521.199,cs),
(66.646,522.708,o),
(104.11,557.959,o),
(185.761,545.407,cs),
(230.926,538.46,o),
(254.462,507.338,o),
(261.426,480.527,cs),
(269.228,450.483,o),
(259.213,420.265,o),
(235.304,401.662,cs),
(223.813,392.691,ls),
(216.534,386.996,o),
(209.629,381.591,o),
(202.996,376.542,c),
(157.897,384.169,o),
(112.665,376.99,o),
(86.509,363.675,cs),
(74.986,357.806,o),
(68.984,345.271,o),
(71.554,332.496,cs),
(74.157,319.604,o),
(84.661,310.302,o),
(97.676,309.349,cs),
(141.035,306.157,o),
(172.828,323.285,o),
(209.081,350.021,c),
(214.478,348.778,o),
(219.867,347.269,o),
(225.173,345.503,cs),
(314.725,315.65,o),
(373.727,286.924,o),
(410.303,228.403,cs),
(426.038,203.208,o),
(434.254,159.742,o),
(417.093,119.427,cs),
(399.062,77.055,o),
(357.138,47.832,o),
(295.201,34.774,c),
(197.342,8.71,o),
(56.366,77.519,o),
(54.956,78.216,cs),
(48.813,81.25,o),
(41.344,78.746,o),
(38.301,72.586,cs),
(35.25,66.435,o),
(37.771,58.974,o),
(43.922,55.931,cs),
(49.012,53.411,o),
(150.328,3.885,o),
(245.484,3.893,c),
(264.494,3.893,o),
(283.271,5.874,o),
(300.963,10.6,c),
(388.881,29.112,o),
(425.093,74.7,o),
(439.983,109.694,cs),
(462.06,161.574,o),
(449.152,213.173,o),
(431.402,241.592,cs)
);
},
{
closed = 1;
nodes = (
(97.071,334.344,o),
(96.217,336.044,o),
(95.944,337.437,cs),
(95.554,339.335,o),
(96.184,340.711,o),
(97.809,341.54,cs),
(113.685,349.632,o),
(138.009,354.995,o),
(164.902,354.995,cs),
(167.315,354.995,o),
(169.752,354.954,o),
(172.206,354.863,c),
(148.653,340.189,o),
(126.56,332.239,o),
(99.5,334.17,cs)
);
}
);
width = 486;
}
);
unicode = 1510;
},
{
glyphname = qof;
layers = (
{
layerId = "C73915B0-B20C-482B-87B9-BB72CFBD0103";
shapes = (
{
closed = 1;
nodes = (
(43.997,-243,o),
(48.391,-240.48,o),
(50.572,-236.127,cs),
(60.777,-215.708,o),
(127.199,44.309,o),
(134.411,73.159,cs),
(151.431,141.272,o),
(127.331,279.736,o),
(126.303,285.598,cs),
(125.11,292.371,o),
(118.61,296.864,o),
(111.895,295.687,cs),
(105.13,294.493,o),
(100.612,288.043,o),
(101.806,281.278,cs),
(102.046,279.894,o),
(126.021,142.184,o),
(110.278,79.202,cs),
(90.149,-1.313,o),
(35.641,-209.922,o),
(28.312,-225.002,cs),
(25.245,-231.145,o),
(27.74,-238.614,o),
(33.875,-241.682,cs),
(35.666,-242.569,o),
(37.556,-242.992,o),
(39.438,-243,c)
);
},
{
closed = 1;
nodes = (
(288.296,37.627,o),
(291.421,38.796,o),
(293.842,41.142,cs),
(342.755,88.57,o),
(444.518,187.25,o),
(333.005,346.797,cs),
(223.109,504.006,o),
(39.247,430.893,o),
(37.406,430.131,cs),
(31.064,427.528,o),
(28.03,420.265,o),
(30.625,413.923,cs),
(33.22,407.581,o),
(40.499,404.53,o),
(46.833,407.117,cs),
(53.631,409.886,o),
(214.263,473.265,o),
(312.619,332.554,cs),
(412.012,190.375,o),
(327.202,108.136,o),
(276.524,58.991,cs),
(271.599,54.207,o),
(271.483,46.34,o),
(276.258,41.407,cs),
(278.696,38.895,o),
(281.937,37.635,o),
(285.179,37.627,c)
);
}
);
width = 422;
}
);
unicode = 1511;
},
{
glyphname = resh;
layers = (
{
layerId = "C73915B0-B20C-482B-87B9-BB72CFBD0103";
shapes = (
{
closed = 1;
nodes = (
(253.577,14.008,o),
(257.855,16.363,o),
(260.11,20.508,cs),
(384.356,249.129,o),
(415.354,400.8,o),
(352.24,471.309,cs),
(270.472,562.669,o),
(66.382,480.868,o),
(57.735,477.345,cs),
(51.385,474.75,o),
(48.334,467.496,o),
(50.921,461.137,cs),
(53.515,454.779,o),
(60.761,451.736,o),
(67.128,454.314,cs),
(69.085,455.102,o),
(263.625,533.08,o),
(333.727,454.704,cs),
(402.645,377.654,o),
(319.85,182.517,o),
(238.248,32.38,cs),
(234.973,26.344,o),
(237.204,18.8,o),
(243.247,15.517,cs),
(245.137,14.489,o),
(247.168,14.,o),
(249.175,14.008,c)
);
}
);
width = 434;
}
);
unicode = 1512;
},
{
glyphname = shin;
layers = (
{
layerId = "C73915B0-B20C-482B-87B9-BB72CFBD0103";
shapes = (
{
closed = 1;
nodes = (
(307.358,0.008,l),
(342.136,0.008,o),
(375.206,6.699,o),
(404.23,20.096,cs),
(529.737,78.02,o),
(503.631,262.363,o),
(502.453,270.181,cs),
(501.434,276.962,o),
(495.183,281.655,o),
(488.318,280.627,cs),
(481.529,279.615,o),
(476.845,273.281,o),
(477.856,266.492,cs),
(478.113,264.767,o),
(502.337,92.76,o),
(393.801,42.67,cs),
(341.605,18.57,o),
(274.023,18.918,o),
(208.463,43.607,cs),
(161.275,61.365,o),
(122.037,89.444,o),
(101.17,119.53,c),
(102.156,119.762,o),
(103.118,120.126,o),
(104.055,120.616,cs),
(233.442,188.38,o),
(314.778,345.855,o),
(318.666,458.951,cs),
(320.241,504.664,o),
(307.764,538.04,o),
(283.532,552.93,cs),
(260.385,567.164,o),
(229.769,563.997,o),
(192.546,543.52,cs),
(88.461,486.276,o),
(54.844,394.229,o),
(44.978,327.102,cs),
(32.974,245.501,o),
(50.251,168.078,o),
(68.688,126.576,cs),
(87.433,84.404,o),
(137.639,43.698,o),
(199.708,20.328,cs),
(235.697,6.773,o),
(272.389,0.,o),
(307.374,0.,c)
);
},
{
closed = 1;
nodes = (
(258.254,536.689,o),
(264.804,535.238,o),
(270.507,531.731,cs),
(286.558,521.874,o),
(295.047,495.652,o),
(293.82,459.797,cs),
(290.263,356.11,o),
(212.285,205.359,o),
(92.523,142.643,cs),
(91.479,142.096,o),
(90.542,141.416,o),
(89.721,140.637,c),
(73.298,179.949,o),
(58.732,249.687,o),
(69.584,323.479,cs),
(78.637,385.043,o),
(109.394,469.397,o),
(204.533,521.725,cs),
(218.279,529.286,o),
(235.73,536.697,o),
(251.357,536.689,c)
);
}
);
width = 542;
}
);
unicode = 1513;
},
{
glyphname = tav;
layers = (
{
layerId = "C73915B0-B20C-482B-87B9-BB72CFBD0103";
shapes = (
{
closed = 1;
nodes = (
(-281.534,-300,o),
(-279.487,-299.511,o),
(-277.588,-298.475,cs),
(164.243,-56.862,o),
(223.726,251.379,o),
(222.955,402.42,c),
(286.509,277.361,o),
(436.157,6.434,o),
(443.9,-7.568,cs),
(447.216,-13.578,o),
(454.777,-15.734,o),
(460.795,-12.434,cs),
(466.806,-9.11,o),
(468.986,-1.541,o),
(465.662,4.47,cs),
(385.602,149.326,o),
(231.088,432.663,o),
(219.233,468.212,cs),
(215.386,479.744,o),
(208.497,480.747,o),
(203.423,479.595,cs),
(192.248,477.041,o),
(193.715,465.684,o),
(194.345,460.834,cs),
(207.742,357.23,o),
(212.451,-2.138,o),
(-289.526,-276.646,cs),
(-295.553,-279.937,o),
(-297.767,-287.498,o),
(-294.476,-293.525,cs),
(-292.221,-297.654,o),
(-287.951,-299.992,o),
(-283.549,-300,c)
);
}
);
width = 456;
}
);
unicode = 1514;
},
{
glyphname = gershayimhebrew;
layers = (
{
layerId = "C73915B0-B20C-482B-87B9-BB72CFBD0103";
shapes = (
{
closed = 1;
nodes = (
(127.296,413.722,o),
(126.716,444.139,o),
(126.683,445.408,cs),
(126.492,452.247,o),
(120.747,457.934,o),
(113.982,457.454,cs),
(107.142,457.304,o),
(101.704,451.625,o),
(101.82,444.786,c),
(101.828,444.529,o),
(102.019,418.108,o),
(82.553,374.509,cs),
(79.751,368.242,o),
(82.562,360.888,o),
(88.837,358.086,cs),
(90.479,357.348,o),
(92.203,357,o),
(93.894,357,cs),
(98.653,357,o),
(103.196,359.744,o),
(105.26,364.37,cs)
);
},
{
closed = 1;
nodes = (
(74.827,421.772,o),
(74.246,452.181,o),
(74.213,453.449,cs),
(74.023,460.289,o),
(68.087,465.926,o),
(61.513,465.503,cs),
(54.673,465.354,o),
(49.243,459.675,o),
(49.351,452.836,c),
(49.351,452.579,o),
(49.541,426.158,o),
(30.084,382.551,cs),
(27.282,376.283,o),
(30.101,368.921,o),
(36.368,366.128,cs),
(38.01,365.39,o),
(39.734,365.042,o),
(41.425,365.042,cs),
(46.184,365.042,o),
(50.727,367.786,o),
(52.791,372.412,cs)
);
}
);
width = 157;
}
);
unicode = 1524;
},
{
glyphname = sheqel;
layers = (
{
layerId = "C73915B0-B20C-482B-87B9-BB72CFBD0103";
shapes = (
{
closed = 1;
nodes = (
(82.407,55.346,o),
(71.074,298.517,o),
(67.974,358.92,c),
(243.346,395.456,l),
(274.792,151.779,ls),
(275.679,144.972,o),
(281.896,140.139,o),
(288.719,141.043,cs),
(295.526,141.922,o),
(300.334,148.156,o),
(299.455,154.971,cs),
(264.578,425.284,l),
(42,378.916,l),
(42.572,368.247,ls),
(47.148,283.586,o),
(56.185,55.338,o),
(43.194,16.365,cs),
(41.022,9.849,o),
(44.537,2.81,o),
(51.053,0.638,cs),
(52.363,0.199,o),
(53.689,-0.,o),
(54.991,-0.,cs),
(60.197,-0.,o),
(65.055,3.291,o),
(66.788,8.498,cs)
);
},
{
closed = 1;
nodes = (
(368.588,33.708,l),
(371.912,38.459,ls),
(374.416,42.04,o),
(432.531,128.715,o),
(373.794,363.646,cs),
(372.136,370.294,o),
(365.396,374.332,o),
(358.714,372.69,cs),
(352.049,371.024,o),
(348.003,364.276,o),
(349.67,357.61,cs),
(397.828,164.969,o),
(364.178,77.622,o),
(354.121,57.419,c),
(182.72,42.513,l),
(166.885,311.616,ls),
(166.479,318.463,o),
(160.734,323.695,o),
(153.745,323.297,cs),
(146.889,322.899,o),
(141.658,317.013,o),
(142.064,310.157,cs),
(159.391,15.519,l)
);
}
